# Blender v2.74 (sub 0) OBJ File: 'ddzn.blend'
# www.blender.org
o Cube
v 1.000000 1.591737 -0.999999
v 0.999999 1.591737 1.000001
v -1.000000 1.591737 1.000000
v -1.000000 1.591737 -1.000000
v 2.070662 4.381274 2.070665
v -2.070664 4.381274 2.070662
v -2.070662 4.381274 -2.070663
v 2.070663 4.381274 -2.070663
v 1.000000 -1.591737 -0.999999
v 0.999999 -1.591737 1.000001
v -1.000000 -1.591737 1.000000
v -1.000000 -1.591737 -1.000000
v 2.070662 -4.381274 2.070665
v -2.070664 -4.381276 2.070662
v -2.070662 -4.381275 -2.070664
v 2.070663 -4.381272 -2.070662
vt 0.315468 0.711559
vt 0.213382 0.684925
vt 0.496503 0.497000
vt 0.751741 0.323667
vt 0.751741 0.479626
vt 0.503496 0.479626
vt 0.982879 0.000243
vt 0.982879 0.248488
vt 0.826920 0.248488
vt 0.496991 0.497000
vt 0.819928 0.497000
vt 0.819928 0.819938
vt 0.181279 0.785198
vt 0.000243 0.501052
vt 0.283365 0.811831
vt 0.496504 0.995705
vt 0.000245 0.999757
vt 0.288447 0.181284
vt 0.004304 0.000243
vt 0.503009 0.000254
vt 0.976373 0.745732
vt 0.976373 0.993977
vt 0.820415 0.993977
vt 0.820415 0.497000
vt 0.976373 0.497000
vt 0.976374 0.745245
vt 0.503496 0.000243
vt 0.826434 0.000243
vt 0.826434 0.323181
vt 0.315079 0.283371
vt 0.498948 0.496514
vt 0.188174 0.213386
vt 0.000243 0.496503
vt 0.214805 0.315472
vt 0.503496 0.323667
vt 0.826920 0.000243
vt 0.496991 0.819938
vt 0.820415 0.745732
vt 0.820415 0.745245
vt 0.503496 0.323181
vn -0.933600 -0.358300 -0.000000
vn 0.000000 0.000000 -1.000000
vn -0.000000 0.000000 1.000000
vn 0.000000 1.000000 0.000000
vn -0.000000 -0.358300 0.933600
vn 0.000000 -0.358300 -0.933600
vn 0.933600 -0.358300 0.000000
vn 0.000000 0.358300 -0.933600
vn -1.000000 0.000000 -0.000000
vn 1.000000 0.000000 0.000000
vn 0.000000 -1.000000 -0.000000
vn -0.933600 0.358300 -0.000000
vn 0.933600 0.358300 0.000000
vn -0.000000 0.358300 0.933600
s off
f 4/1/1 3/2/1 7/3/1
f 4/4/2 1/5/2 9/6/2
f 10/7/3 2/8/3 3/9/3
f 8/10/4 7/11/4 6/12/4
f 3/2/5 2/13/5 6/14/5
f 1/15/6 4/1/6 8/16/6
f 2/13/7 1/15/7 5/17/7
f 12/18/8 16/19/8 15/20/8
f 11/21/9 3/22/9 4/23/9
f 10/24/10 9/25/10 1/26/10
f 14/27/11 15/28/11 16/29/11
f 11/30/12 15/20/12 14/31/12
f 9/32/13 13/33/13 16/19/13
f 10/34/14 14/31/14 13/33/14
f 8/16/6 4/1/6 7/3/6
f 12/35/2 4/4/2 9/6/2
f 11/36/3 10/7/3 3/9/3
f 5/37/4 8/10/4 6/12/4
f 7/3/1 3/2/1 6/14/1
f 5/17/7 1/15/7 8/16/7
f 6/14/5 2/13/5 5/17/5
f 11/30/12 12/18/12 15/20/12
f 12/38/9 11/21/9 4/23/9
f 2/39/10 10/24/10 1/26/10
f 13/40/11 14/27/11 16/29/11
f 10/34/14 11/30/14 14/31/14
f 12/18/8 9/32/8 16/19/8
f 9/32/13 10/34/13 13/33/13
